<?xml version="1.0" encoding="utf-8"?>
<!-- Generator: Adobe Illustrator 19.1.0, SVG Export Plug-In . SVG Version: 6.00 Build 0)  -->
<svg version="1.1" id="Layer_1" xmlns="http://www.w3.org/2000/svg" xmlns:xlink="http://www.w3.org/1999/xlink" x="0px" y="0px"
	 width="270px" height="270px" viewBox="0 0 270 270" style="enable-background:new 0 0 270 270;" xml:space="preserve">
<style type="text/css">
	.st0{opacity:0.16;}
	.st1{fill:none;stroke:#26373E;stroke-width:0.6356;stroke-miterlimit:10;}
	.st2{fill:#4F5764;}
	.st3{fill:url(#SVGID_1_);}
	.st4{fill:url(#SVGID_2_);}
	.st5{fill:url(#SVGID_3_);}
	.st6{fill:url(#SVGID_4_);}
	.st7{fill:url(#SVGID_5_);}
	.st8{fill:url(#SVGID_6_);}
	.st9{fill:#FFFFFF;}
	.st10{fill:url(#SVGID_7_);}
	.st11{fill:url(#SVGID_8_);}
	.st12{fill:url(#SVGID_9_);}
	.st13{fill:url(#SVGID_10_);}
	.st14{fill:url(#SVGID_11_);}
	.st15{fill:url(#SVGID_12_);}
	.st16{fill:url(#SVGID_13_);}
	.st17{fill:url(#SVGID_14_);}
	.st18{fill:url(#SVGID_15_);}
	.st19{fill:url(#SVGID_16_);}
</style>
<g class="st0">
	<polyline class="st1" points="14.5,191.2 237.4,214.9 156.5,11.6 14.5,187.7 49.4,38.9 263.3,173.2 109.7,255.8 8.7,77.7 	"/>
	<polyline class="st1" points="49.4,38.9 156.5,11.6 263.3,173.2 	"/>
	<g>
		<circle class="st2" cx="49.4" cy="38.9" r="5.1"/>
		<circle class="st2" cx="156.5" cy="11.6" r="5.1"/>
		<circle class="st2" cx="263.3" cy="173.2" r="5.7"/>
		<circle class="st2" cx="237.4" cy="214.9" r="5.1"/>
		<circle class="st2" cx="109.7" cy="255.8" r="4.8"/>
		<circle class="st2" cx="8.7" cy="77.7" r="5.9"/>
		<circle class="st2" cx="14.5" cy="187.7" r="6.7"/>
	</g>
</g>
<g>
	<linearGradient id="SVGID_1_" gradientUnits="userSpaceOnUse" x1="89.8471" y1="134.6955" x2="163.2465" y2="134.6955">
		<stop  offset="0" style="stop-color:#4F5764"/>
		<stop  offset="0.6682" style="stop-color:#293942"/>
		<stop  offset="1" style="stop-color:#111C21"/>
	</linearGradient>
	<rect x="89.8" y="81.4" class="st3" width="73.4" height="106.6"/>
	<g>
		<linearGradient id="SVGID_2_" gradientUnits="userSpaceOnUse" x1="90.6335" y1="179.444" x2="156.1698" y2="81.7949">
			<stop  offset="0" style="stop-color:#D0D1D3"/>
			<stop  offset="0.4956" style="stop-color:#CDD2D1"/>
			<stop  offset="0.994" style="stop-color:#F2F2F2"/>
		</linearGradient>
		<rect x="89.8" y="81.4" class="st4" width="66.6" height="99.2"/>
	</g>
	<g>
		<linearGradient id="SVGID_3_" gradientUnits="userSpaceOnUse" x1="172.3255" y1="178.4396" x2="190.0203" y2="114.214">
			<stop  offset="0" style="stop-color:#3D96D2"/>
			<stop  offset="1" style="stop-color:#069FB0"/>
		</linearGradient>
		<polygon class="st5" points="186.2,180.6 175.7,180.6 175.7,113.7 180.9,100.8 186.2,113.7 		"/>
	</g>
	<g>
		<path class="st9" d="M111.3,132.4v-17.8h12.6v3.3h-8.8v3.7h8.6v3.3h-8.6v7.4H111.3z"/>
		<path class="st9" d="M125.7,123.6c0-5.4,3-9.2,8.3-9.2c2.2,0,4,0.7,5.3,1.8l-1.7,2.9c-1-0.9-2-1.4-3.5-1.4c-2.6,0-4.5,2.2-4.5,5
			c0,0.1,0,0.2,0,0.4c0.8-1.2,2.6-2.3,4.6-2.3c3.2,0,6.1,2,6.1,5.8c0,3.5-2.8,6.1-6.8,6.1C128,132.8,125.7,128.6,125.7,123.6z
			 M136.4,126.8c0-1.9-1.6-2.7-3.3-2.7c-1.3,0-2.6,0.6-3.5,1.7c0.2,1.7,1.1,3.6,3.6,3.6C135.2,129.4,136.4,128,136.4,126.8z"/>
	</g>
	<g>
		<linearGradient id="SVGID_4_" gradientUnits="userSpaceOnUse" x1="83.6214" y1="91.6015" x2="95.586" y2="91.6015">
			<stop  offset="0" style="stop-color:#3D96D2"/>
			<stop  offset="1" style="stop-color:#069FB0"/>
		</linearGradient>
		<rect x="83.6" y="89.4" class="st6" width="12" height="4.4"/>
	</g>
	<g>
		<linearGradient id="SVGID_5_" gradientUnits="userSpaceOnUse" x1="83.6214" y1="100.4609" x2="95.586" y2="100.4609">
			<stop  offset="0" style="stop-color:#3D96D2"/>
			<stop  offset="1" style="stop-color:#069FB0"/>
		</linearGradient>
		<rect x="83.6" y="98.2" class="st7" width="12" height="4.4"/>
	</g>
	<g>
		<linearGradient id="SVGID_6_" gradientUnits="userSpaceOnUse" x1="83.6214" y1="127.0393" x2="95.586" y2="127.0393">
			<stop  offset="0" style="stop-color:#3D96D2"/>
			<stop  offset="1" style="stop-color:#069FB0"/>
		</linearGradient>
		<rect x="83.6" y="124.8" class="st8" width="12" height="4.4"/>
	</g>
	<g>
		<linearGradient id="SVGID_7_" gradientUnits="userSpaceOnUse" x1="83.6214" y1="135.8988" x2="95.586" y2="135.8988">
			<stop  offset="0" style="stop-color:#3D96D2"/>
			<stop  offset="1" style="stop-color:#069FB0"/>
		</linearGradient>
		<rect x="83.6" y="133.7" class="st10" width="12" height="4.4"/>
	</g>
	<g>
		<linearGradient id="SVGID_8_" gradientUnits="userSpaceOnUse" x1="83.6214" y1="162.4771" x2="95.586" y2="162.4771">
			<stop  offset="0" style="stop-color:#3D96D2"/>
			<stop  offset="1" style="stop-color:#069FB0"/>
		</linearGradient>
		<rect x="83.6" y="160.3" class="st11" width="12" height="4.4"/>
	</g>
	<g>
		<linearGradient id="SVGID_9_" gradientUnits="userSpaceOnUse" x1="83.6214" y1="171.3366" x2="95.586" y2="171.3366">
			<stop  offset="0" style="stop-color:#3D96D2"/>
			<stop  offset="1" style="stop-color:#069FB0"/>
		</linearGradient>
		<rect x="83.6" y="169.1" class="st12" width="12" height="4.4"/>
	</g>
	<g>
		<linearGradient id="SVGID_10_" gradientUnits="userSpaceOnUse" x1="83.6214" y1="109.3204" x2="95.586" y2="109.3204">
			<stop  offset="0" style="stop-color:#3D96D2"/>
			<stop  offset="1" style="stop-color:#069FB0"/>
		</linearGradient>
		<rect x="83.6" y="107.1" class="st13" width="12" height="4.4"/>
	</g>
	<g>
		<linearGradient id="SVGID_11_" gradientUnits="userSpaceOnUse" x1="83.6214" y1="118.1799" x2="95.586" y2="118.1799">
			<stop  offset="0" style="stop-color:#3D96D2"/>
			<stop  offset="1" style="stop-color:#069FB0"/>
		</linearGradient>
		<rect x="83.6" y="116" class="st14" width="12" height="4.4"/>
	</g>
	<g>
		<linearGradient id="SVGID_12_" gradientUnits="userSpaceOnUse" x1="83.6214" y1="144.7582" x2="95.586" y2="144.7582">
			<stop  offset="0" style="stop-color:#3D96D2"/>
			<stop  offset="1" style="stop-color:#069FB0"/>
		</linearGradient>
		<rect x="83.6" y="142.5" class="st15" width="12" height="4.4"/>
	</g>
	<g>
		<linearGradient id="SVGID_13_" gradientUnits="userSpaceOnUse" x1="83.6214" y1="153.6177" x2="95.586" y2="153.6177">
			<stop  offset="0" style="stop-color:#3D96D2"/>
			<stop  offset="1" style="stop-color:#069FB0"/>
		</linearGradient>
		<rect x="83.6" y="151.4" class="st16" width="12" height="4.4"/>
	</g>
</g>
</svg>
