<?xml version="1.0" encoding="utf-8"?>
<!-- Generator: Adobe Illustrator 19.1.0, SVG Export Plug-In . SVG Version: 6.00 Build 0)  -->
<svg version="1.1" id="Layer_1" xmlns="http://www.w3.org/2000/svg" xmlns:xlink="http://www.w3.org/1999/xlink" x="0px" y="0px"
	 width="270px" height="270px" viewBox="0 0 270 270" style="enable-background:new 0 0 270 270;" xml:space="preserve">
<style type="text/css">
	.st0{opacity:0.2;}
	.st1{fill:none;stroke:#3F5D69;stroke-width:0.5134;stroke-miterlimit:10;}
	.st2{fill:#4F5764;}
	.st3{fill:url(#SVGID_1_);}
	.st4{fill:url(#SVGID_2_);}
	.st5{fill:url(#SVGID_3_);}
	.st6{fill:url(#SVGID_4_);}
	.st7{fill:url(#SVGID_5_);}
	.st8{fill:url(#SVGID_6_);}
	.st9{fill:url(#SVGID_7_);}
</style>
<g class="st0">
	<polyline class="st1" points="91.2,27.9 250.6,116.3 13.7,117.1 208.2,54.1 	"/>
	<polyline class="st1" points="181.5,227.2 258.7,182.9 7.3,179.2 179.2,228.8 	"/>
	<polyline class="st1" points="7.3,179.2 91.2,27.9 208.2,54.1 258.7,182.9 	"/>
	<g>
		<circle class="st2" cx="7.3" cy="179.2" r="4.1"/>
		<circle class="st2" cx="91.2" cy="27.9" r="4.6"/>
		<circle class="st2" cx="258.7" cy="182.9" r="4.1"/>
		<circle class="st2" cx="208.2" cy="54.1" r="3.3"/>
		<circle class="st2" cx="250.6" cy="116.3" r="3.9"/>
		<circle class="st2" cx="13.7" cy="117.1" r="4.7"/>
		<circle class="st2" cx="179.2" cy="228.8" r="5.4"/>
	</g>
</g>
<g>
	<linearGradient id="SVGID_1_" gradientUnits="userSpaceOnUse" x1="127.1718" y1="187.3774" x2="152.0181" y2="156.8904">
		<stop  offset="0" style="stop-color:#D0D1D3"/>
		<stop  offset="0.5225" style="stop-color:#CDD2D1"/>
		<stop  offset="0.994" style="stop-color:#F2F2F2"/>
	</linearGradient>
	<polygon class="st3" points="145.4,169.2 145.4,154.5 133.9,154.5 133.9,169.2 112.5,169.2 112.5,174.9 166.9,174.9 166.9,169.2 	
		"/>
	<linearGradient id="SVGID_2_" gradientUnits="userSpaceOnUse" x1="85.0996" y1="118.4856" x2="194.2902" y2="118.4856">
		<stop  offset="0" style="stop-color:#D0D1D3"/>
		<stop  offset="0.5225" style="stop-color:#CDD2D1"/>
		<stop  offset="0.994" style="stop-color:#F2F2F2"/>
	</linearGradient>
	<rect x="85.1" y="80.7" class="st4" width="109.2" height="75.6"/>
	<linearGradient id="SVGID_3_" gradientUnits="userSpaceOnUse" x1="91.1375" y1="149.8817" x2="188.7937" y2="86.7396">
		<stop  offset="0" style="stop-color:#3D96D2"/>
		<stop  offset="1" style="stop-color:#069FB0"/>
	</linearGradient>
	<rect x="89.9" y="86.4" class="st5" width="99.6" height="64.1"/>
	<linearGradient id="SVGID_4_" gradientUnits="userSpaceOnUse" x1="58.8981" y1="153.359" x2="119.2881" y2="153.359">
		<stop  offset="0" style="stop-color:#4F5764"/>
		<stop  offset="0.6682" style="stop-color:#293942"/>
		<stop  offset="1" style="stop-color:#111C21"/>
	</linearGradient>
	<rect x="58.9" y="114.3" class="st6" width="60.4" height="78"/>
	<linearGradient id="SVGID_5_" gradientUnits="userSpaceOnUse" x1="63.3368" y1="184.134" x2="114.438" y2="121.4314">
		<stop  offset="0" style="stop-color:#3D96D2"/>
		<stop  offset="1" style="stop-color:#069FB0"/>
	</linearGradient>
	<rect x="63.9" y="121.7" class="st7" width="50.4" height="61.6"/>
	<g>
		<linearGradient id="SVGID_6_" gradientUnits="userSpaceOnUse" x1="180.4045" y1="159.832" x2="210.4102" y2="159.832">
			<stop  offset="0" style="stop-color:#4F5764"/>
			<stop  offset="0.6682" style="stop-color:#293942"/>
			<stop  offset="1" style="stop-color:#111C21"/>
		</linearGradient>
		<rect x="180.4" y="137.3" class="st8" width="30" height="45.1"/>
		<linearGradient id="SVGID_7_" gradientUnits="userSpaceOnUse" x1="184.9704" y1="174.5269" x2="206.6195" y2="142.2015">
			<stop  offset="0" style="stop-color:#3D96D2"/>
			<stop  offset="1" style="stop-color:#069FB0"/>
		</linearGradient>
		<rect x="184.9" y="143.5" class="st9" width="21" height="30.9"/>
	</g>
</g>
</svg>
