<?xml version="1.0" encoding="utf-8"?>
<!-- Generator: Adobe Illustrator 17.0.0, SVG Export Plug-In . SVG Version: 6.00 Build 0)  -->
<!DOCTYPE svg PUBLIC "-//W3C//DTD SVG 1.1//EN" "http://www.w3.org/Graphics/SVG/1.1/DTD/svg11.dtd">
<svg version="1.1" id="Layer_1" xmlns="http://www.w3.org/2000/svg" xmlns:xlink="http://www.w3.org/1999/xlink" x="0px" y="0px"
	 width="741px" height="565px" viewBox="52 95 741 565" enable-background="new 52 95 741 565" xml:space="preserve">
<g opacity="0.8">
	
		<circle opacity="0.1" fill="#FFFFFF" stroke="#FFFFFF" stroke-miterlimit="10" enable-background="new    " cx="732.199" cy="155.993" r="54.376"/>
	
		<circle opacity="0.1" fill="#FFFFFF" stroke="#FFFFFF" stroke-miterlimit="10" enable-background="new    " cx="732.199" cy="155.993" r="48.493"/>
	<g>
		<g>
			<path id="Shape_5_" fill="#5B5A5D" stroke="#676767" stroke-miterlimit="10" d="M760.735,140.292
				c-0.006-0.007-0.017-0.01-0.024-0.016c0.648-1.432,0.449-5.257-12.156-12.551c-13.741-7.949-16.435-5.396-16.957-4.259
				c-0.02-0.01-0.038-0.025-0.061-0.03l-27.983,48.449l0.022,0.001c-0.653,1.25-0.676,4.886,12.268,12.375
				c13.959,8.077,16.652,5.081,17.158,3.898L760.735,140.292L760.735,140.292L760.735,140.292L760.735,140.292z"/>
			
				<rect id="Rectangle_15_" x="717.35" y="131.113" transform="matrix(-0.8656 -0.5008 0.5008 -0.8656 1288.3838 657.1622)" fill="#3F4040" width="30.088" height="49.089"/>
			
				<rect id="Rectangle_14_" x="717.746" y="132.802" transform="matrix(-0.8656 -0.5008 0.5008 -0.8656 1289.4663 656.0801)" fill="#737F82" width="30.088" height="44.338"/>
			
				<rect id="Rectangle_8_" x="727.659" y="135.468" transform="matrix(-0.8656 -0.5008 0.5008 -0.8656 1316.537 629.0895)" fill="#8B9799" width="30.088" height="4.75"/>
			
				<rect id="Rectangle_7_" x="708.822" y="168.792" transform="matrix(-0.8656 -0.5008 0.5008 -0.8656 1242.9458 674.3997)" fill="#5B5A5D" width="6.333" height="3.166"/>
			
				<rect id="Rectangle_6_" x="717.044" y="173.552" transform="matrix(-0.8656 -0.5008 0.5008 -0.8656 1255.9009 687.3973)" fill="#5B5A5D" width="6.333" height="3.166"/>
			
				<rect id="Rectangle_5_" x="725.268" y="178.308" transform="matrix(-0.8656 -0.5008 0.5008 -0.8656 1268.8621 700.3875)" fill="#5B5A5D" width="6.333" height="3.166"/>
		</g>
	</g>
</g>
<g opacity="0.7">
	<g>
		<g>
			
				<circle opacity="0.1" fill="#FFFFFF" stroke="#FFFFFF" stroke-miterlimit="10" enable-background="new    " cx="206.145" cy="523.881" r="65.197"/>
			
				<circle opacity="0.1" fill="#FFFFFF" stroke="#FFFFFF" stroke-miterlimit="10" enable-background="new    " cx="206.145" cy="523.881" r="58.143"/>
		</g>
	</g>
	<g>
		<g>
			<g>
				<path fill="#5B5A5D" d="M237.082,559.11c-0.518,1.814-2.426,2.875-4.241,2.357l-69.213-19.762
					c-1.814-0.518-2.875-2.426-2.357-4.241l13.937-48.812c0.518-1.814,2.426-2.875,4.241-2.357l69.213,19.762
					c1.814,0.518,2.875,2.426,2.357,4.241L237.082,559.11L237.082,559.11z"/>
				<path fill="none" stroke="#737F82" stroke-width="0.5" stroke-miterlimit="10" d="M237.082,559.11
					c-0.518,1.814-2.426,2.875-4.241,2.357l-69.213-19.762c-1.814-0.518-2.875-2.426-2.357-4.241l13.937-48.812
					c0.518-1.814,2.426-2.875,4.241-2.357l69.213,19.762c1.814,0.518,2.875,2.426,2.357,4.241L237.082,559.11L237.082,559.11z"/>
			</g>
			
				<rect x="173.623" y="499.979" transform="matrix(0.9616 0.2746 -0.2746 0.9616 151.7612 -36.4538)" fill="#737F82" width="64.929" height="47.713"/>
		</g>
		<path fill="#3F4040" d="M173.613,514.593c-0.24,0.841-1.117,1.328-1.958,1.088l0,0c-0.841-0.24-1.328-1.117-1.088-1.958l0,0
			c0.24-0.841,1.117-1.328,1.958-1.088l0,0C173.366,512.875,173.853,513.751,173.613,514.593L173.613,514.593z"/>
		
			<line fill="none" stroke="#3F4040" stroke-width="2" stroke-linecap="round" stroke-miterlimit="10" x1="241.069" y1="530.559" x2="239.33" y2="536.651"/>
	</g>
	<g>
		<g>
			
				<rect x="180.828" y="502.385" transform="matrix(0.9616 0.2746 -0.2746 0.9616 146.6521 -38.7418)" fill="#8B9799" width="61.752" height="4.117"/>
			
				<rect x="176.895" y="508.101" transform="matrix(0.9616 0.2746 -0.2746 0.9616 150.2843 -37.1323)" fill="#8B9799" width="61.752" height="20.241"/>
			
				<rect x="172.169" y="524.35" transform="matrix(0.9616 0.2746 -0.2746 0.9616 152.9644 -29.4693)" fill="#8B9799" width="19.145" height="14.552"/>
		</g>
		
			<rect x="193.008" y="530.247" transform="matrix(0.9616 0.2746 -0.2746 0.9616 155.3847 -34.9648)" fill="#8B9799" width="19.145" height="14.552"/>
		
			<rect x="213.265" y="535.979" transform="matrix(0.9616 0.2746 -0.2746 0.9616 157.7372 -40.307)" fill="#8B9799" width="19.145" height="14.552"/>
	</g>
</g>
<g>
	<path opacity="0.2" fill="#425457" enable-background="new    " d="M490.555,134.012c27.692,0.014,47.249,19.761,71.019,58.527
		c38.849,63.355,52.628,97.538,60.144,116.982c0,0-17.255,21.626-72.768,52.327c-30.91,17.095-58.509,20.873-76.9,20.864
		c-14.637-0.007-23.443-2.413-23.443-2.413s-25.685-51.12-51.373-98.165c-25.688-47.044-42.601-82.797,27.653-124.151
		C452.153,141.932,472.989,134.003,490.555,134.012"/>
	<g>
		<path fill="#425356" d="M641.073,483.339c0,0,17.15-20.895,40.967,5.455c23.817,26.349,63.547-3.314,65.613,45.182
			s-61.053,32.996-66.902,25.051C674.903,551.081,626.43,504.235,641.073,483.339z"/>
		<path fill="#627377" d="M641.699,485.743c0,0,24.769,1.894,35.422,18.83c10.652,16.937,56.429,18.841,59.254,12.257
			c2.825-6.584-7.207-10.664-16.612-11.296c-9.406-0.632-26.964-1.581-37.933-12.247
			C670.86,482.622,659.892,470.702,641.699,485.743z"/>
		<path fill="#DCDCDB" d="M460.464,497.046c0,0-49.745-7.55-70.66,15.015c0,0-24.255,16.711-17.169,59.774
			c0,0,39.29,15.906,79.007,12.998c0,0,1.682-19.648-4.165-32.193c0,0,28.845,1.686,42.224-1.651S460.464,497.046,460.464,497.046z"
			/>
		<path fill="#F2F2F2" d="M463.59,515.756c0,0-21.791-1.906-29.95,12.513c0,0,12.047,50.187-31.846,43.582
			c-41.071-6.918-26.318-39.519-26.318-39.519s5.967-20.064,16.002-22.254c0,0,13.179-20.792,68.987-13.031L463.59,515.756z"/>
		<path fill="#DCDCDB" d="M572.475,557.72c0,0,63.935,57.306,90.697,44.776c26.762-12.529,20.074-14.204,25.515-26.325
			c5.441-12.121,5.891-79.01-47.198-87.815C588.4,479.551,572.475,557.72,572.475,557.72z"/>
		<path fill="#C7C7C7" d="M624.75,522.211c0,0,42.21,27.195,45.124,53.116c0,0,12.562-39.5-32.91-69.646L624.75,522.211z"/>
		<path fill="#627377" d="M373.18,312.43c1.885-6.479,8.792-25.916,1.482-38.252s-26.126-6.283-18.605,2.708
			c0,0,0.417,2.717-0.002,4.599c0,0-0.576-1.602-1.617-4.068c-0.865-1.617-1.95-3.073-2.838-4.681
			c-1.082-1.958-1.968-4.081-3.272-5.905c-2.746-3.842-6.244-6.786-9.257-10.342c-2.551-3.01-3.429-6.978-6.419-9.702
			c-2.413-2.198-5.271-3.598-8.156-5.015c-2.51-0.658-5.33-1.003-8.346-0.65c-13.741,1.61-17.149,17.968-5.235,18.392
			c0,0,9.507,7.687,10.285,20.072c-6.847-4.917-22.903-19.728-36.564-15.897c1.264,1.905,1.916,4.84,2.357,6.801
			c0.635,2.827,2.08,5.392,3.044,8.114c0.073,0.204,0.151,0.42,0.232,0.642c0.143-0.106,0.328-0.162,0.543-0.128
			c5.159,0.822,6.511,5.723,6.77,10.281c0.022,0.381-0.329,0.676-0.687,0.686c-0.098,0.003-0.191-0.009-0.287-0.011
			c-0.045,0.053-0.076,0.109-0.131,0.159c0,0-16.932,1.664-22.79,10.65c-5.857,8.986-0.424,11.914-0.424,11.914
			s-4.6,3.708-4.603,8.934s4.034,6.996,10.029,10.509c6.426,3.765,16.615,5.652,19.283,1.263c0.312,2.352,0.991,3.554,0.991,3.554
			s5.009,16.516,21.313,16.315c16.305-0.201,54.987-26.102,54.987-26.102S371.296,318.909,373.18,312.43z"/>
		<path fill="#A9B3B5" d="M320.686,368.79l-4.071-9.879c0,0,15.538-34.169,62.882-31.95l4.857,6.743L320.686,368.79z"/>
		<path fill="#8D9699" d="M320.687,367.379c0,0,11.934-39.292,63.144-34.25c0,0,4.805,4.81-2.094,7.733
			C374.837,343.786,319.844,380.965,320.687,367.379z"/>
		<path fill="#DCDCDB" d="M324.659,366.545c0,0,11.907-33.962,56.023-30.491l33.017,44.748c0,0,33.648,12.663,43.367,12.667
			c0,0,20.375,20.83,7.498,58.857c0,0-44.738,5.715-74.727-8.409C389.838,443.918,342.093,405.224,324.659,366.545z"/>
		<g>
			<path fill="#F2F2F2" d="M467.834,426.641c0.027,0.055,0.115-0.042,0.171-0.066c0-0.001-0.001-0.002-0.001-0.002
				c0.016-0.006,0.032-0.01,0.047-0.016c0.443-0.186,0.896-0.343,1.345-0.513c-0.296-2.006-0.719-3.719-1.2-4.939
				c-0.96-2.437-1.702-5.174-2.494-8.072c-1.493-5.453-3.733-13.693-6.82-13.819c-11.096-0.452-41.376-11.3-44.796-12.536
				c-0.836-0.302-1.537-0.767-2.178-1.367c-11.283-10.549-27.749-35.239-33.232-43.594c-0.814-0.027-2.164-0.041-2.164-0.041h-0.255
				c-18.235-0.007-29.885,7.06-36.893,13.961c3.983,6.24,31.964,49.14,59.606,66.965c0,0,40.173,6.184,68.272,3.169
				C467.278,425.742,467.398,425.771,467.834,426.641z"/>
		</g>
		<path fill="#DCDCDB" d="M461.095,452.419c-3.097-7.954-15.081-44.156,16.298-60.126l-3.582-0.802c0,0-33.479,12.066-15.579,60.927
			L461.095,452.419z"/>
		<path fill="#048CB9" d="M631.534,326.98c0,0,19.635,28.438,21.271,102.017c1.087,48.903-22.219,126.661-108.762,135.399
			c-86.543,8.737-94.862-76.551-76.443-126.709c0,0-1.662-20.068-10.013-41.811C449.593,375.058,619.42,307.325,631.534,326.98z"/>
		<path fill="#DCDCDB" d="M444.965,390.362c0,0-34.205,13.532-14.998,62.634l2.927,0.001c0,0-19.708-43.767,15.654-61.764
			L444.965,390.362z"/>
		<path fill="#1DACE3" d="M621.039,417.694l-13.614-52.369l-5.911-15.367l-2.438,1.751c0,0,11.683,15.179,18.202,60.652
			c6.458,45.049,2.284,71.244-20.535,101.265c-18.673,24.568-39.868,31.976-51.338,34.207c-2.277,0.678-4.607,1.477-6.964,2.036
			l2.167,1.555c27.027-2.765,48.235-20.243,58.747-36.072c10.512-15.829,21.338-33.382,23.23-56.583
			C624.479,435.567,621.039,417.694,621.039,417.694z"/>
		<path fill="#0C6788" d="M606.022,347.453c0,0-18.98,20.449-7.39,43.03c11.59,22.581,15.823,23.759,27.11,25.332
			C637.029,417.388,606.022,347.453,606.022,347.453z"/>
		<path fill="#626D70" d="M439.197,385.884l6.684,10.402c0,0,43.053,14.654,102.118-14.059
			c51.705-25.135,87.195-59.845,87.195-59.845l-1.979-13.17L439.197,385.884z"/>
		<path fill="#017499" d="M601.514,349.958c0,0,23.921,53.941,21.39,99.091c-2.531,45.149-17.08,90.356-54.036,109.433l-2.771,1.848
			c0,0,93.549-15.736,87.134-148.474c-6.132-70.342-21.174-86.497-21.174-86.497S615.955,339.357,601.514,349.958z"/>
		<path fill="#8D9699" d="M442.023,378.1c0,0-9.411,9.401,4.384,11.603s56.12,8.18,102.538-16.568s84.371-55.456,84.374-62.667
			s-9.717-7.53-9.717-7.53L442.023,378.1z"/>
		<g opacity="0.2">
			<path fill="none" stroke="#FFFFFF" stroke-width="3" stroke-miterlimit="10" d="M621.719,309.521
				c-7.516-19.444-21.295-53.626-60.144-116.982c-38.849-63.355-66.435-75.91-136.689-34.557s-53.34,77.106-27.653,124.151
				c25.687,47.044,51.373,98.165,51.373,98.165s44.831,12.25,100.344-18.45C604.463,331.147,621.719,309.521,621.719,309.521z"/>
			<path fill="#FFFFFF" d="M490.556,134.012c27.692,0.014,47.249,19.761,71.019,58.527c38.849,63.355,52.628,97.538,60.144,116.982
				c0,0-17.255,21.626-72.768,52.327c-30.91,17.095-58.509,20.873-76.9,20.864c-14.637-0.007-23.444-2.413-23.444-2.413
				s-25.685-51.12-51.373-98.165s-42.601-82.797,27.653-124.151C452.154,141.932,472.99,134.003,490.556,134.012 M490.558,128.995
				c-18.185-0.009-39.224,7.598-68.216,24.663c-34.076,20.058-50.684,40.371-52.265,63.928c-1.4,20.852,9.005,41.77,22.754,66.949
				c25.351,46.427,51.037,97.503,51.294,98.013l1.004,1.997l2.157,0.589c0.386,0.106,9.628,2.583,24.763,2.59
				c18.447,0.009,47.184-3.712,79.33-21.49c55.744-30.828,73.532-52.673,74.262-53.587l1.796-2.251l-1.038-2.686
				c-6.468-16.733-19.927-51.553-60.546-117.796c-13.253-21.614-24.059-35.482-35.036-44.969
				C518.403,134.22,505.234,129.002,490.558,128.995L490.558,128.995z"/>
		</g>
		<polygon fill="#676767" points="576.527,343.439 534.632,367.788 492.383,381.235 474.485,354.492 566.396,309.309 		"/>
		<path fill="#425356" d="M427.537,294.898c0,0-15.684,11.985-36.579-1.403c0,0,18.585,36.72,47.022,20.011
			C437.979,313.506,432.132,299.499,427.537,294.898z"/>
		<path opacity="0.5" fill="#718587" enable-background="new    " d="M506.883,140.226c0,0,2.381,18.052,1.928,29.199
			l-66.807,162.373l-9.267,8.893l-23.581-45.624c0,0-20.796-37.952-24.276-51.351s-10.688-36.976,18.008-63.654
			c23.166-21.006,50.958-32.804,61.118-36.634C474.167,139.597,494.039,134.544,506.883,140.226z"/>
		<path fill="#627377" d="M418.05,313.774c6.674,0.101,12.126-2.688,17.175-6.333c-2.114-4.376-5.099-9.952-7.688-12.544
			c0,0-15.684,11.985-36.579-1.403c0,0,3.972,7.534,10.81,14.761C411.943,317.859,411.696,313.678,418.05,313.774z"/>
		<path fill="#717272" d="M419.199,298.168c-5.72,1.586-4.007,8.285-1.79,12.16c2.103,3.675,5.474,6.401,9.398,7.194
			c3.496-0.443,7.225-1.696,11.172-4.015c0,0-5.846-14.008-10.442-18.608c0,0-2.951,2.115-8.127,3.163
			C419.347,298.104,419.284,298.145,419.199,298.168z"/>
		<path fill="#909A9D" d="M419.199,298.168c-5.72,1.586-4.007,8.285-1.79,12.16c0.714,1.247,1.578,2.382,2.556,3.374
			c5.812-0.401,10.706-2.971,15.261-6.26c-2.114-4.376-5.099-9.952-7.688-12.544c0,0-2.951,2.115-8.127,3.163
			C419.347,298.104,419.284,298.145,419.199,298.168z"/>
		<g>
			<path fill="#E8F6FD" d="M580.178,231.83c0.583,1.016,1.166,2.05,1.75,3.1C581.344,233.876,580.761,232.848,580.178,231.83z"/>
			<path fill="#E8F6FD" d="M583.034,236.951c0.431,0.792,0.862,1.58,1.294,2.392C583.896,238.53,583.465,237.745,583.034,236.951z"
				/>
			<path fill="#E8F6FD" d="M577.6,227.424c0.685,1.142,1.371,2.313,2.057,3.499C578.969,229.733,578.284,228.565,577.6,227.424z"/>
			<path fill="#F3FAFD" d="M499.402,378.441c-14.105-8.159,1.262-17.244-7.198-27.596c0,0,54.56-5.617,63.978-29.756
				c0,0,1.781,0.428,6.341,3.732c0.346-0.597,2.843-0.813,3.17-1.428c10.81-20.343,5.093-44.17,1.495-65.635
				c-0.09-0.537,3.465-1.747,0.001-1.045c0.824-7.365-0.013-13.91,3.731-20.397c1.864-3.231,4.151-6.17,6.68-8.896
				c-47.779-68.97-58.439-68.557-58.439-68.557c2.505,7.527,2.08,20.068,2.08,20.068c-14.204-20.492-30.51-18.41-30.51-18.41
				c2.088,4.6,2.085,11.289,2.085,11.289c-14.626-13.385-44.31-9.637-44.31-9.637c10.861,16.31,13.358,41.395,13.358,41.395
				c-19.222-17.15-50.162-10.894-50.162-10.894l1.669,6.271c-7.107-1.257-11.079,0.413-11.079,0.413
				c15.044,12.131,18.167,39.725,18.167,39.725c-19.229-5.026-36.791,2.49-36.791,2.49s15.041,18.402,30.913,46.838
				c25.376,41.57,42.237,85.937,43.784,93.066C466.98,382.215,484.054,380.955,499.402,378.441z"/>
			<path fill="#D2ECF9" d="M581.928,234.929c0.369,0.665,0.737,1.343,1.105,2.022C582.665,236.274,582.296,235.593,581.928,234.929z
				"/>
			<polygon fill="#D2ECF9" points="577.598,227.421 577.598,227.421 577.599,227.423 			"/>
			<path fill="#D2ECF9" d="M584.328,239.343c0.839,1.58,1.677,3.184,2.515,4.839C586.004,242.527,585.166,240.92,584.328,239.343z"
				/>
			<path fill="#D2ECF9" d="M579.656,230.922c0.174,0.301,0.348,0.603,0.522,0.907C580.004,231.526,579.831,231.223,579.656,230.922z
				"/>
			<path fill="#DDEAF0" d="M564.35,257.207c0.365-0.231,0.901-0.169,0.99,0.369c3.598,21.466,9.013,45.095-1.797,65.438
				c-0.327,0.614-0.675,1.211-1.021,1.808c4.602,3.336,12.568,14.672,6.293,23.866c17.465-11.11,38.77-25.94,47.505-34.058
				c0.98-1.209,1.426-1.871,1.426-1.871s-1.249-10.034-30.902-68.577c-0.838-1.654-1.676-3.259-2.515-4.839
				c-0.432-0.812-0.863-1.6-1.294-2.392c-0.369-0.678-0.738-1.357-1.105-2.022c-0.584-1.05-1.167-2.084-1.75-3.1
				c-0.174-0.304-0.348-0.606-0.522-0.907c-0.687-1.186-1.373-2.358-2.057-3.499c0,0-0.001-0.002-0.002-0.003
				c-2.529,2.726-4.815,5.665-6.68,8.896C567.174,242.804,565.174,249.842,564.35,257.207z"/>
			<path fill="#4E4D50" d="M534.566,367.819c0.022-0.01,0.044-0.021,0.066-0.031"/>
		</g>
		<path fill="#DDEAF0" d="M548.74,196.796c5.198,7.841,7.737,17.352,9.305,26.723c4.432-1.898,8.568-4.364,12.585-7.032
			c-17.531-25.798-40.777-51.811-47.711-55.736C530.167,166.442,543.786,189.324,548.74,196.796z"/>
		<path fill="#425356" d="M550.482,221.589c0,0-7.119,23.826,21.718,43.071l-2.919-14.634c0,0,42.235-22.973,11.746-81.934
			C581.027,168.092,579.334,209.061,550.482,221.589z"/>
		<path fill="#627377" d="M565.963,259.037c-1.592-3.034-3.618-6.846-3.244-10.405c0.392-3.734,3.214-5.642,5.872-7.975
			c4.681-4.107,8.51-8.596,12.128-13.651c11.994-16.765,9.015-40.751,0.277-58.386c-0.312,4.772-3.567,41.269-30.514,52.969
			c0,0-6.2,20.781,16.47,39.204C566.618,260.21,566.276,259.632,565.963,259.037z"/>
		<path fill="#717272" d="M581.002,239.69c-5.164,0.584-10.254-0.542-13.673-5.308c-4.835-6.739-6.971-15.051-3.401-22.296
			c-3.652,3.854-8.077,7.171-13.446,9.502c0,0-7.119,23.826,21.718,43.071l-2.919-14.634
			C569.281,250.026,575.197,246.807,581.002,239.69z"/>
		<path fill="#909A9D" d="M568.591,240.656c0.965-0.846,1.886-1.714,2.784-2.595c-1.5-0.858-2.875-2.046-4.046-3.679
			c-4.843-6.75-6.979-15.078-3.385-22.33c-3.657,3.864-8.08,7.199-13.462,9.536c0,0-6.2,20.781,16.47,39.204
			c-0.335-0.583-0.677-1.161-0.99-1.756c-1.592-3.034-3.618-6.846-3.244-10.405C563.111,244.897,565.932,242.99,568.591,240.656z"/>
		<path fill="#DDEAF0" d="M445.234,334.899c1.768,8.45,8.614,14.168,15.29,12.771c6.677-1.396,12.336-9.927,10.567-18.378
			c-1.767-8.451-10.291-13.62-16.967-12.224C447.446,318.465,443.466,326.449,445.234,334.899z"/>
		<path fill="#DDEAF0" d="M492.12,312.375c1.747,8.348,9.436,13.918,16.031,12.538c6.596-1.379,11.905-9.807,10.157-18.156
			c-1.746-8.349-9.885-13.455-16.48-12.076C495.23,296.059,490.372,304.026,492.12,312.375z"/>
		<path fill="#FFFFFF" d="M490.866,309.686c1.72,8.219,9.713,13.198,16.208,11.839c6.495-1.359,11.417-9.52,9.699-17.74
			c-1.721-8.219-9.431-13.384-15.926-12.025C494.353,293.121,489.147,301.466,490.866,309.686z"/>
		<path fill="#FFFFFF" d="M444.298,331.958c1.741,8.319,9.832,13.645,16.406,12.269c6.575-1.376,11.842-9.636,10.102-17.956
			c-1.742-8.319-9.831-13.549-16.405-12.172C447.828,315.475,442.558,323.638,444.298,331.958z"/>
		<path fill="#425356" d="M492.51,296.424c0.064,0.509,0.168,1.023,0.344,1.535c1.101,0.211,1.142-1.206,2.827-1.983
			c1.496-0.692,2.509-0.312,3.514,0.062c1.512,1.16,2.844,3.045,3.661,5.429c1.698,4.936,0.541,10.106-2.576,11.546
			c-3.118,1.442-7.023-1.391-8.717-6.332C490.205,302.735,490.675,298.646,492.51,296.424z"/>
		<path opacity="0.6" fill="#FFFFFF" enable-background="new    " d="M499.892,300.038c0.841,2.363-0.119,5.091-2.144,6.095
			c-2.026,1.004-4.349-0.098-5.19-2.461s0.119-5.091,2.144-6.095C496.727,296.574,499.051,297.676,499.892,300.038z"/>
		<path fill="#BDDAE3" d="M458.684,290.628c0,0-22.26-3.146-29.163,8.451c0,0-4.07-12.858,8.161-17.554
			C449.912,276.829,458.684,290.628,458.684,290.628z"/>
		<path fill="#BDDAE3" d="M476.879,271.511c0,0,4.399-18.497,19.452-23.82c15.052-5.323,20.067-1.244,20.067-1.244
			s-6.265-10.977-22.571-8.477C477.521,240.47,471.867,262.729,476.879,271.511z"/>
		<path fill="#425356" d="M449.858,315.216c0.064,0.509,0.169,1.023,0.344,1.535c0.916,2.672,1.925-0.422,3.61-1.198
			c1.496-0.692,3.246,1.648,2.731-0.722c1.512,1.16,2.844,3.045,3.661,5.429c1.698,4.936,0.541,10.106-2.576,11.546
			c-3.118,1.442-7.023-1.391-8.717-6.332C447.554,321.527,448.024,317.438,449.858,315.216z"/>
		<path opacity="0.6" fill="#FFFFFF" enable-background="new    " d="M457.161,319.904c0.796,2.259-0.203,4.9-2.23,5.899
			s-4.315-0.022-5.111-2.281s0.203-4.9,2.23-5.899C454.077,316.624,456.365,317.645,457.161,319.904z"/>
		<path fill="#717272" d="M535.127,284.782c-45.45,1.302-53.662,12.233-53.662,12.233l0.013-0.003
			c-4.801,3.747-4.253,7.221-6.915,8.151c-4.181,1.461-8.546-0.473-19.651,4.171c-24.462,10.23-26.349,23.189-26.349,23.189
			c0.626,2.717,3.132,6.899,6.291,8.358c3.159,1.458,5.824,9.834,9.794,13.18c3.97,3.347,10.659,2.514,21.949-1.661
			c11.29-4.175,12.965-9.609,13.594-13.789s-2.918-17.978-2.918-17.978c2.301-1.88,5.595-1.928,5.595-1.928s2.91,3.876,6.055,8.295
			c3.146,4.419,6.11,9.946,10.709,9.53c4.599-0.416,14.006-2.292,29.895-9.183c15.89-6.89,13.385-15.461,13.385-15.461
			l-4.589-20.279c4.808-0.834,21.322-0.408,21.322-0.408l0.212-5.852C555.3,283.987,545.968,283.932,535.127,284.782z
			 M462.627,348.636c-10.244,3.339-15.679,3.336-18.812-2.518s-7.1-14.008-7.1-14.008s12.342-18.597,33.872-18.378
			c0,0,4.383,14.843,4.588,21.114C475.382,341.117,472.871,345.296,462.627,348.636z M519.076,326.089
			c-18.189,6.262-18.845,6.426-22.069,2.788c-3.223-3.637-11.37-14.092-13.458-19.737c-2.087-5.645,10.875-11.7,20.492-14.204
			c9.617-2.504,21.532-3.543,27.802-2.495l5.425,21.533C537.268,313.973,537.265,319.827,519.076,326.089z"/>
		<path fill="#737F82" d="M475.165,336.268c-0.228,5.49-3.091,9.288-12.538,12.368c-8.141,2.654-13.239,3.185-16.563,0.357
			c0.816,1.213,1.747,2.31,3.148,2.959c1.35,0.625,2.71,0.968,4.078,1.135c2.943-0.033,5.946-0.964,8.609-2.03
			c3.503-1.402,9.696-3.469,11.764-6.851C474.885,342.21,475.345,339.21,475.165,336.268z"/>
		<path fill="#737F82" d="M498.686,330.509c0.659,0.876,1.387,1.54,2.17,2.037c8.391-0.787,16.527-2.898,24.189-6.632
			c4.836-2.357,10.796-5.517,14.173-10.137c-0.946-3.521-2.009-7.011-3.236-10.447c-0.943-2.643-1.836-5.447-2.939-8.123
			l4.224,16.767c0,0-0.003,5.852-18.192,12.115C504.306,331.174,501.098,332.237,498.686,330.509z"/>
		<path fill="#425356" d="M447.353,377.788c0,0,31.14,12.243,86.753-11.559c55.614-23.803,86.359-59.217,86.359-59.217l1.253,2.509
			c0,0-30.745,35.416-86.359,59.217c-55.614,23.803-86.753,11.559-86.753,11.559L447.353,377.788z"/>
		<path fill="#017499" d="M467.444,436.483c0,0,30.068-40.798,98.415-29.477c0,0-39.181-24.998-99.717,18.868L467.444,436.483z"/>
		<path fill="#017499" d="M475.992,448.093c0,0,25.046-28.184,61.521-25.569c14.65,1.074,22.695,0.26,27.536-0.155
			c0.801,2.092,1.435,4.285,1.435,4.285l-5.238,12.019c0,0-38.244-17.264-76.851,13.136c0,0-3.044,8.16-2.152,12.428
			c5.366-3.151,49.358-16.856,68.841-3.491c20.355,13.965,23.582,40.822-3.96,53.794c-27.542,12.972-56.864,8.505-70.449,0.708
			c0,0-1.779-2.339-2.144-3.34c-0.888-2.439-0.891-5.377-0.89-8.533c0,0,22.703,10.77,42.373,7.441
			c19.67-3.33,37.195-9.814,36.845-23.541c-0.351-13.727-20.725-31.917-81.173-7.089c0,0-1.251-1.485-2.144-3.34
			C469.326,471.513,471.427,459.917,475.992,448.093z"/>
		<path fill="#F2F2F2" d="M473.849,444.753c0,0,21.352-24.09,60.758-24.85c20.468-0.163,30.443,2.465,30.443,2.465l-4.722,12.494
			c0,0-38.37-14.499-78.077,13.606c0,0-3.044,8.16-2.152,12.428c5.366-3.151,49.358-16.856,68.841-3.491
			c20.355,13.965,23.582,40.822-3.96,53.794c-27.542,12.972-56.864,8.505-70.449,0.708c0,0-3.036-7.421-3.034-11.873
			c0,0,22.703,10.77,42.373,7.44c19.67-3.33,37.195-9.814,36.845-23.541c-0.35-13.727-20.725-31.917-81.173-7.089
			C469.542,476.844,467.761,460.518,473.849,444.753z"/>
		<path fill="#627377" d="M524.479,391.936l-12.543,3.443l1.247,14.11c0,0-37.639,27.26-25.124,82.136
			c3.915,17.167,9.244,30.36,15.265,40.56c4.617-0.018,9.224-0.236,13.829-0.526c0.272-0.71,0.755-1.302,1.209-1.912
			c-7.549-10.475-14.028-24.127-17.446-41.878c-10.006-55.816,26.377-80.568,26.377-80.568L524.479,391.936z"/>
		<path fill="#017499" d="M518.757,551.631c0,0-37.263,6.331-51.251-26.076c0,0,13.581,44.065,73.28,39.271L518.757,551.631z"/>
		<path fill="#8D9699" d="M524.479,391.936l-12.543,3.443l1.247,14.11c0,0-37.639,27.26-25.124,82.136
			c3.98,17.453,9.422,30.792,15.566,41.059c0.435,0.013,0.868,0.026,1.295,0.038c3.278,0.101,6.557,0.095,9.833-0.057
			c0.645-0.03,1.287-0.081,1.931-0.119c0.239-0.308,0.469-0.63,0.701-0.951c0.008-0.02,0.007-0.04,0.018-0.059
			c0.312-0.585,0.727-1.105,1.021-1.7c-7.604-10.496-14.07-24.113-17.508-41.967c-10.006-55.816,26.377-80.568,26.377-80.568
			L524.479,391.936z"/>
		<path fill="#626D70" d="M518.503,529.962c-7.611-10.501-14.147-24.227-17.588-42.093c-10.006-55.816,26.377-80.568,26.377-80.568
			l-2.814-15.365l-3.554,0.625l2.71,13.589c0,0-36.358,24.969-25.75,80.673c3.777,19.833,10.897,34.615,18.948,45.589
			C517.385,531.59,517.932,530.768,518.503,529.962z"/>
		<path fill="#F2F2F2" d="M504.374,453.904l-6.84,1.249c0,0-1.212,10.156-0.81,12.382l8.002-1.526L504.374,453.904z"/>
		<path fill="#F2F2F2" d="M508.665,435.242l-5.757,2.023c0,0,3.185-9.819,7.174-13.699c0,0,5.965-1.527,7.104-1.667
			C518.125,421.969,508.665,435.242,508.665,435.242z"/>
		<path fill="#0C6788" d="M621.669,410.106c0,0,15.689,9.174,31.88,9.856c0,0-0.146-12.252-1.585-20.84
			C650.525,390.533,621.669,410.106,621.669,410.106z"/>
		<path fill="#F2F2F2" d="M510.964,507.889c0,0-4.336,0.23-5.543,0.136c0,0,2.609,7.561,5.199,11.457c0,0,6.775-0.506,8.295-0.923
			C519.967,518.271,510.964,507.889,510.964,507.889z"/>
		<path fill="#DCDCDB" d="M747.285,326.514c-2.185-21.166-23.193-18.668-23.193-18.668c-18.039-4.777-36.711-2.426-52.456,1.996
			c-21.412,9.973-41.988,21.576-60.375,36.411c-12.196,15.573-11.914,30.053-5.888,45.252c3.683,9.289,9.337,15.137,15.979,18.14
			c4.078,1.153,8.723-0.043,13.086-1.473c0.568-0.187,1.126-0.396,1.687-0.596c1.077-0.503,2.108-1.059,3.438-1.757
			c4.525-2.375,9.062-4.807,13.511-7.321c8.364-4.726,16.612-10.821,26.374-12.109c0.755-0.796,1.179-1.275,1.179-1.275
			c2.347,10.192,10.025,18.818,10.025,18.818l71.655-19.718C765.147,346.119,747.285,326.514,747.285,326.514z"/>
		<path fill="#F2F2F2" d="M664.042,318.791c0,0,6.583,2.198,7.365,7.842c0.781,5.644-1.731,12.698-8.318,19.122
			c0,0,24.934-15.194,44.215-10.169c0,0-8.949,26.02,13.461,43.903c0,0,21.481-5.947,35.432-1.707c0,0,2.519-22.574-15.026-49.234
			c0,0,2.045-13.638-18.493-13.962C722.677,314.587,698.695,305.796,664.042,318.791z"/>
		<path fill="#C7C7C7" d="M704.272,337.049c0,0-30.855,8.773-28.539,50.07c1.186-0.307,2.394-0.549,3.625-0.716l1.166-1.211
			C680.523,385.192,674.79,353.339,704.272,337.049z"/>
		<path fill="#FFFFFF" d="M663.938,318.844c0,0,34.372-14.001,58.782-4.995c0,0,20.443-1.447,18.345,14.439
			c0,0,16.922,18.612,15.236,47.876c0,0-1.451-25.503-18.58-47.041c0,0,5.441-11.494-16.716-13.386
			C721.005,315.735,702.614,307.575,663.938,318.844z"/>
		<polygon fill="#118EA3" points="496.724,467.535 498.8,471.154 500.613,466.841 		"/>
		<path fill="#118EA3" d="M508.378,435.388c0,0-4.163,1.322-5.471,1.877l1.128,2.751L508.378,435.388z"/>
		<path fill="#118EA3" d="M516.633,519.022c0,0-5.365,0.415-6.012,0.461l3.395,3.086L516.633,519.022z"/>
		<path fill="#626D70" d="M776.354,405.019l-3.13-10.871c0,0-1.873-17.351-36.573-13.396c-34.701,3.955-48.922,18.162-46.419,29.451
			C692.734,421.491,776.354,405.019,776.354,405.019z"/>
		<path fill="#425356" d="M692.114,405.186c0,0,23.636-32.597,69.407-17.524c20.377,6.594,29.759,56.766-14.766,60.507
			C702.23,451.91,686.676,413.963,692.114,405.186z"/>
		<path fill="#627377" d="M692.114,405.186c0,0-9.308,12.537-8.999,21.004c0.309,8.466-11.295,14.417,2.494,28.534
			c13.789,14.116,20.374,12.866,24.759,21.96s11.91,10.04,32.922,1.27c21.012-8.769,21.643-15.667,25.726-30.715
			c4.084-15.048,8.488-46.401-14.396-54.878C731.736,383.885,711.775,381.681,692.114,405.186z"/>
		<path fill="#57666A" d="M735.478,426.991c0,0,19.659,14.57,24.567,32.159C760.045,459.15,764.218,434.001,735.478,426.991z"/>
		<path fill="#017499" d="M620.935,469.507c0,0-19.033,77.253-81.744,80.985c0,0,11.127,7.844,22.048,11.325
			c0,0,15.836-3.441,21.168-7.202c5.332-3.76,44.552-57.357,44.013-77.894C625.879,456.184,620.935,469.507,620.935,469.507z"/>
		<path fill="#1DACE3" d="M467.048,436.483c0,0,15.023-20.269,45.238-27.779v0.68l-1.511,1.828c0,0-22.578,4.888-44.224,28.159
			L467.048,436.483z"/>
		<path fill="#1DACE3" d="M526.981,405.968c0,0,23.047-3.202,38.879,1.038c0,0-28.61-2.052-39.821,1.234l1.254-0.94L526.981,405.968
			z"/>
		<path fill="#1DACE3" d="M520.638,553.096c0,0-22.158,1.557-34.069-6.287c-11.911-7.845-15.774-14.327-15.774-14.327
			s15.092,14.761,26.643,17.154c10.999,2.279,12.227,1.966,21.556,1.971L520.638,553.096z"/>
		<path fill="#7B898D" d="M310.922,245.51c0,0-5.854,3.028-5.229,6.791c0.625,3.762,2.506,5.018,6.111,5.333
			c3.605,0.315,11.133-3.913,13.486-6.264c2.353-2.351,4.34-5.694-1.617-7.108C317.717,242.848,314.215,243.317,310.922,245.51z"/>
		<path fill="#627377" d="M285.263,277.578c0,0,5.599,1.231,10.258,6.743c6.853,20.654,20.274,1.523,25.052-5.205
			c-5.169-8.468-10.006-11.487-12.247-12.774c-3.1-1.78-5.068-4.892-8.453-6.294c-2.732-1.131-5.598-1.445-8.492-1.766
			c-2.341,0.21-4.85,0.784-7.312,2.013C272.853,265.893,274.98,280.881,285.263,277.578z"/>
		<path fill="#7B898D" d="M280.962,265.641c0,0-4.058,4.38-2.368,7.395c1.69,3.014,3.678,3.505,6.848,2.666
			c3.17-0.84,8.283-6.758,9.565-9.485s1.948-6.187-3.563-5.56C285.934,261.284,283.094,262.76,280.962,265.641z"/>
		<path fill="#7B898D" d="M320.935,267.702c0,0,2.932,7.652,3.245,11.102c0,0,16.307-4.695,23.048-4.535
			c0,0-4.384-11.76-10.183-14.428C337.044,259.841,331.795,265.544,320.935,267.702z"/>
		<path fill="#7B898D" d="M311.222,272.997c0,0,4.962,4.236,6.215,7.999c0,0-7.84,3.288-17.092,7.987c0,0-1.566-4.548-2.976-5.802
			C297.369,283.181,305.784,279.266,311.222,272.997z"/>
		<path fill="#7B898D" d="M350.831,278.766c-26.495-0.065-49.129,13.772-49.129,13.772s-1.676,8.203,6.473,15.106
			c4.996,4.231,3.863,8.281,2.239,10.783c0.002,0.013,0.009,0.023,0.01,0.036c0.564,7.294,10.337,5.389,15.766,2.965
			c5.78-26.539,26.202-27.401,26.202-27.401C356.316,282.896,350.831,278.766,350.831,278.766z"/>
		<path fill="#95A5A7" d="M301.702,292.537c0,0,23.523-14.621,49.129-13.772C350.831,278.765,327.104,282.307,301.702,292.537z"/>
		<path fill="#FFFFFF" d="M378.673,341.716c0,0-21.887-3.257-39.311,13.92c0,0,33.615,53.157,59.606,66.965
			c0,0-25.834-16.317-52.984-66.288C345.984,356.313,353.453,344.441,378.673,341.716z"/>
		<path fill="#FFFFFF" d="M373.586,551.247c0,0,2.186,17.455,23.088,19.974s33.443,3.361,38.682-22.766
			c3.561-14.421-1.715-20.186-1.715-20.186s8.734-13.359,27.546-12.618c0,0-20.692-3.669-30.838,11.481
			c0,0,4.595,7.736,1.872,19.649c-2.802,12.26-3.566,25.918-35.128,21.304C376.088,563.999,373.586,551.247,373.586,551.247z"/>
		<path fill="#7B898D" d="M732.199,399.406c0.005-9.563-9.088-9.567-19.907-6.437c-8.517,2.464-15.17,8.217-17.624,10.56
			c-2.99,2.28-4.959,5.106-4.959,5.106c-8.471,11.597-6.594,19.75-6.594,19.75c1.255-3.135,7.218-13.166,16.626-15.983
			c-7.255,4.658-13.011,16.372-14.795,20.307c-1.13,2.075-1.975,4.01-2.149,5.395c-0.629,5.017,8.775,9.41,25.083,0.639
			c7.77-4.179,12.875-7.508,15.446-11.032c0.183-0.187,0.36-0.36,0.551-0.561c2.05-2.155,4.322-6.388,5.849-11.025
			C731.665,411.893,732.196,406.026,732.199,399.406z"/>
		<path fill="#627377" d="M713.38,413.192c0,0-4.654,0.875-7.09-0.283c-0.182-0.121-0.376-0.237-0.592-0.349
			c-6.112-3.138-13.171,4.069-13.171,4.069s-10.042,17.553-4.238,9.404c5.805-8.149,11.607-12.693,15.683-11.593
			c4.075,1.099,0.048,8.518,0.048,8.518s1.438-1.342,2.594-3.121C707.179,419.229,710.783,415.354,713.38,413.192z"/>
		<path fill="#7B898D" d="M297.05,292.43c0,0-14.894,1.404-19.6,7.829c-4.707,6.425,4.073,7.214,12.38,9.099
			s17.242,5.496,18.498,2.674c1.255-2.821-13.477-10.511-21.316-10.671c0,0,7.526-0.466,9.719,0.161
			C298.927,302.151,299.557,296.821,297.05,292.43z"/>
		<path fill="#7B898D" d="M275.457,314.995c0,0-1.569,1.358-2.554,3.357c-0.976,1.79-1.066,2.621,0.146,4.637
			c1.196,1.99,3.682,3.553,5.798,4.55c5.329,2.511,7.704,3.157,12.337,1.78c1.894-1.313,3.434-3.713,4.022-5.429
			C295.206,323.889,282.456,321.792,275.457,314.995z"/>
		<path fill="#95A5A7" d="M297.05,292.43c0,0-11.131,0.726-17.404,5.53c-6.273,4.804-3.871,8.15,0.518,9.302
			s25.812,7.433,27.903,5.344c0.941-0.836,0.106-1.777,0.106-1.777s-1.046,1.463-7.629-0.109
			c-6.583-1.571-14.631-4.083-18.184-5.234c-3.553-1.152-6.061-2.511-1.46-5.958C285.5,296.083,290.622,293.891,297.05,292.43z"/>
		<path fill="#7B898D" d="M356.805,293.076c-0.024,0.126-0.049,0.281-0.074,0.423c4.77-0.612,9.602-0.071,14.443,0.648
			c0.325-1.994,0.579-3.964,0.73-5.766c1.037-5.285,1.507-11.216-0.191-13.786c-2.59-3.92-6.399-5.333-10.362-4.395
			c-3.964,0.938-4.726,2.349-3.812,4.231c0,0,2.285,2.98,0.758,8.936C357.206,287.626,356.895,291.314,356.805,293.076z"/>
		<path fill="#95A5A7" d="M357.96,284.7c0,0,1.178-5.173,0.474-7.682s-3.525-5.175,1.806-6.583
			c5.331-1.409,12.306,0.084,12.773,9.177c-0.003,6.819-1.575,13.874-1.575,13.874s1.025-13.325-0.618-17.167
			c-1.645-3.841-4.936-4.941-7.758-4.629s-4.547,0.546-3.607,3.134C360.395,277.411,357.96,284.7,357.96,284.7z"/>
		<path fill="#95A5A7" d="M306.162,254.339c0,0-3.446-5.645,5.648-9.56c9.094-3.914,14.658,0.164,15.128,0.948
			c0,0-6.269-3.217-14.58,0.698C304.048,250.34,306.162,254.339,306.162,254.339z"/>
		<path fill="#95A5A7" d="M279.657,274.706c0,0-4.858-4.471,2.514-10.738s12.857-3.521,13.484-2.267c0,0-4.546-1.492-11.916,3.913
			C276.367,271.02,279.657,274.706,279.657,274.706z"/>
		<path fill="#95A5A7" d="M724.365,391.249c4.39,0.472,7.838,2.512,7.049,13.643c-0.52,7.339-3.385,13.881-4.459,16.113
			c-3.621,4.943-10.191,11.588-21.267,16.014c-12.869,5.14-25.767,7.826-18.026-5.966s8.629-13.53,13.021-16.455
			c0,0-8.99,3.34-15.476,16.297c-6.487,12.956,0.618,18.604,21.944,8.79c7.256-3.339,12.306-7.332,15.816-11.149
			c3.784-3.426,8.047-8.306,9.858-23.016C734.869,388.903,724.365,391.249,724.365,391.249z"/>
		<path fill="#425356" d="M350.02,650.838c0,0-25.078-12.555-13.774-45.575c11.304-33.022,40.158-49.729,76.941-36.333l38.876,8.38
			c0,0,18.387,16.732,17.535,47.667L350.02,650.838z"/>
		<path fill="#122B2A" d="M352.111,651.676c0,0-16.3-9.205-6.256-30.104c10.044-20.898,19.665-33.853,61.467-25.472
			c41.802,8.381,63.121,12.155,62.277,28.876c-0.844,16.721-16.321,33.018-68.152,16.271
			C401.447,641.249,375.517,661.721,352.111,651.676z"/>
		<path fill="#95A5A7" d="M582.103,241.05c-7.596,1.361-15.962-3.828-19.258-10.696c-3.015-6.282-3.451-15.901,1.299-21.534
			l-0.258-0.464c-0.646,0.335-1.285,0.684-1.928,1.024c-1.266,0.877-2.613,1.649-4.003,2.332c-1.154,2.033-4.751,9.956,1.563,21.116
			c7.362,13.016,18.441,11.245,18.441,11.245l4.287-2.768L582.103,241.05z"/>
		<path fill="#627377" d="M335.919,635.468c0,0-11.904-22.268,6.921-45.774c18.824-23.506,29.366-30.463,59.898-24.114
			c29.471,6.128,33.545,8.482,33.545,8.482s-45.445-7.166-58.944-4.105c-13.798,3.129-25.718,14.41-34.818,29.457
			C333.421,614.459,333.101,626.06,335.919,635.468z"/>
		<path fill="#425356" d="M566.061,209.786l-2.117,2.266c0,0-3.845,7.974,0.226,16.441c4.386,8.05,10.863,12.129,15.567,10.982
			c1.882-0.626,2.299-1.149,2.299-1.149l1.255-1.776c0,0,1.671,1.464-0.315,4.075c-1.987,2.611-9.512,1.667-13.377-1.156
			c-3.866-2.824-7.836-6.379-9.712-14.951c-1.974-9.013,1.366-14.84,3.98-16.198c2.196-1.357,3.659-0.521,3.659-0.521
			L566.061,209.786z"/>
		<path fill="#7B898D" d="M417.019,297.153c0,0-5.214,3.721-1.3,13.286s8.618,8.078,8.618,8.078l-3.449,0.86
			c0,0-4.939,0.076-7.991-9.881c-2.504-9.486,0.751-11.522,0.751-11.522L417.019,297.153z"/>
		<path fill="#717272" d="M417.705,308.898c-3.043-7.709,0.378-10.159,1.417-10.702c0.287-0.134,0.412-0.197,0.602-0.211
			c0.158-0.012,0.156-0.018,0.312-0.035l0.162-0.06c-0.182-0.264-0.283-0.461-0.494-0.857c-0.766-0.282-1.618-0.243-2.655,0.027
			c-2.831,1.926-4.363,5.285-1.748,12.463c4.018,11.028,9.925,8.994,9.925,8.994l1.497-0.548c0.222-0.182,0.402-0.39,0.56-0.615
			C425.051,317.285,420.577,316.173,417.705,308.898z"/>
		<g>
			<circle opacity="0.1" fill="#FFFFFF" enable-background="new    " cx="463.04" cy="358.67" r="6.121"/>
			<circle fill="#FFFFFF" cx="463.04" cy="358.67" r="1.149"/>
		</g>
		<path fill="#1DACE3" d="M602.414,352.153c0,0-13.333,15.514-1.118,42.955c9.397,17.563,17.862,19.762,17.862,19.762l-0.941,2.038
			c0,0-10.502-4.081-18.646-20.859c-7.236-14.908-8.607-30.732,1.904-45.62L602.414,352.153z"/>
		<path fill="#909A9D" d="M428.564,332.524c0,0,1.417-10.869,16-18.544c14.583-7.675,21.326-9.239,25.715-8.767l6.115-2.662
			c0,0,4.711-14.734,45.629-17.693c19.754-1.872,35.223-0.61,37.834,0.489c0,0-44.261-1.119-65.901,8.433
			c-14.896,6.577-16.624,13.318-16.624,13.318l-4.391,2.036c0,0-7.993-4.394-27.126,7.355
			c-19.132,11.749-15.531,19.798-15.531,19.798s-0.881-1.388-1.201-2.143C428.765,333.389,428.564,332.524,428.564,332.524z"/>
		<path fill="#C7C7C7" d="M686.87,581.103c0,0,8.525-46.735-16.339-78.52c0,0,17.089,12.341,20.548,42.443
			C694.539,575.129,686.87,581.103,686.87,581.103z"/>
		<path fill="#F2F2F2" d="M669.874,575.327c0,0,0.011-22.889-45.124-53.116l-2.145,2.655
			C622.604,524.864,661.944,550.03,669.874,575.327z"/>
		<path fill="#017499" d="M519.696,554.193c0,0,0.784-1.332,3.371-1.802s16.306-3.12,21.479-0.966s17.471,10.215,17.471,10.215
			s-9.612,2.761-22.834,3.38C525.962,565.641,519.696,554.193,519.696,554.193z"/>
		<path fill="#1DACE3" d="M510.327,551.568c0,0,13.206,1.146,36.854-4.138l1.184,1.911c0,0-19.157,4.816-38.038,3.729V551.568z"/>
		<path fill="#DCDCDB" d="M418.631,383.909c0,0-34.205,13.363-14.998,62.465l2.927,0.001c0,0-19.709-43.682,15.654-61.679
			L418.631,383.909z"/>
		<path fill="#DCDCDB" d="M407.591,377.033c-0.039-0.447-0.044-0.895-0.011-1.345c-0.092-0.491-0.14-0.994-0.169-1.505
			c-9.298-0.726-34.013,1.535-44.145,43.53l2.41,1.659C365.677,419.373,373.34,377.063,407.591,377.033z"/>
		<path fill="#DCDCDB" d="M394.722,360.646c0.051-0.445,0.136-0.885,0.258-1.32c0.008-0.499,0.062-1.002,0.135-1.508
			c-8.966-2.569-33.635-5.291-51.953,33.833l2.031,2.107C345.193,393.758,361.155,353.832,394.722,360.646z"/>
		<path fill="#DCDCDB" d="M711.361,372.273c0,0,22.811-13.785,45.466-6.17l0.001-2.744c0,0-18.572-9.2-47.835,6.326L711.361,372.273
			z"/>
		<path fill="#DCDCDB" d="M705.724,358.867c0,0,24.318-18.555,46.884-9.612l1.408-2.357c0,0-19.108-12.023-49.167,9.284
			L705.724,358.867z"/>
		<path fill="#DCDCDB" d="M704.79,346.011c23.989-20.654,44.521-9.492,41.707-10.823l-0.156-2.404c0,0-16.038-10.244-42.386,10.17
			L704.79,346.011z"/>
		<path fill="#DCDCDB" d="M707.304,335.587c0,0,7.43-19.985,18.511-22.801l-3.762-1.095c0,0-10.819,3.205-17.78,24.282
			L707.304,335.587z"/>
		<path fill="#DCDCDB" d="M699.399,310.57c0,0-9.437,6.466-3.953,24.733l-2.233,1.427c0,0-6.281-16.726,2.737-26.162L699.399,310.57
			z"/>
		<path fill="#DCDCDB" d="M681.826,339.583c0,0-8.128-8.255-5.391-23.36l-2.612-0.001c0,0-2.975,12.917,5.568,24.664
			L681.826,339.583z"/>
		<path fill="#DCDCDB" d="M372.893,554.696c0,0,22.752-16.92,65.174,4.212l-0.835-3.345c0,0-29.672-20.5-65.547-6.314
			L372.893,554.696z"/>
		<path fill="#DCDCDB" d="M376.909,528.263c0,0,40.185-14.097,60.659,8.174l2.341-3.291c0,0-17.061-21.643-61.215-9.201
			L376.909,528.263z"/>
		<path fill="#DCDCDB" d="M391.478,510.077c0,0,36.481-10.12,47.495,14.76l2.431-1.017c0,0-7.006-25.891-47.541-16.377
			C393.862,507.442,392.693,508.392,391.478,510.077z"/>
		<path fill="#DCDCDB" d="M419.623,496.648c0,0,27.829-2.639,33.366,21.507l2.552-0.835c0,0-3.676-22.477-29.187-21.494
			C426.355,495.826,423.592,495.939,419.623,496.648z"/>
	</g>
	<path opacity="0.3" fill="#FFFFFF" enable-background="new    " d="M501.118,129.839c-2.64-0.363-5.33-0.544-8.072-0.554
		c-18.193-0.006-39.229,7.598-68.219,24.666c-34.075,20.055-50.689,40.378-52.27,63.934c-1.395,20.843,9.008,41.772,22.753,66.947
		c25.356,46.423,51.042,97.506,51.297,98.015l1.01,1.996l2.156,0.589c0.145,0.037,1.44,0.388,3.75,0.811
		c-4.249-0.636-6.655-1.278-6.85-1.335l-2.156-0.589l-0.999-1.999c-0.255-0.509-25.948-51.579-51.297-98.015
		c-13.746-25.175-24.156-46.091-22.753-66.947c1.581-23.556,18.187-43.866,52.259-63.931c28.994-17.058,50.04-24.665,68.222-24.656
		C493.772,128.767,497.495,129.127,501.118,129.839z"/>
</g>
<g>
	<g>
		
			<circle opacity="0.1" fill="#FFFFFF" stroke="#FFFFFF" stroke-miterlimit="10" enable-background="new    " cx="255.392" cy="238.889" r="109.395"/>
		
			<circle opacity="0.1" fill="#FFFFFF" stroke="#FFFFFF" stroke-miterlimit="10" enable-background="new    " cx="255.392" cy="238.889" r="99.61"/>
	</g>
	<g>
		<g>
			<g>
				<path fill="#5B5A5D" stroke="#676767" stroke-miterlimit="10" d="M315.084,274.293c1.511,3.105,0.206,6.882-2.899,8.393
					l-57.252,27.857c-3.105,1.511-6.882,0.206-8.393-2.899l-54.61-112.238c-1.511-3.105-0.206-6.882,2.899-8.393l57.252-27.857
					c3.105-1.511,6.882-0.206,8.393,2.899L315.084,274.293z"/>
			</g>
			
				<rect x="222.28" y="189.948" transform="matrix(0.8992 -0.4375 0.4375 0.8992 -77.6883 134.9804)" fill="#737F82" width="63.7" height="92.329"/>
			<path fill="#3F4040" d="M283.497,285.443c1.168,2.399,0.169,5.291-2.231,6.458l0,0c-2.399,1.167-5.291,0.169-6.458-2.231l0,0
				c-1.168-2.399-0.169-5.291,2.231-6.458l0,0C279.438,282.044,282.329,283.043,283.497,285.443L283.497,285.443z"/>
			
				<line fill="none" stroke="#3F4040" stroke-width="2" stroke-linecap="round" stroke-miterlimit="10" x1="220.723" y1="189.554" x2="238.1" y2="181.099"/>
		</g>
		<g>
			
				<rect x="221.145" y="205.544" transform="matrix(0.8992 -0.4375 0.4375 0.8992 -73.7903 131.911)" fill="#B3BBBB" width="56.543" height="41.146"/>
			<g>
				
					<rect x="236.755" y="257.202" transform="matrix(0.8992 -0.4375 0.4375 0.8992 -90.3296 133.5975)" fill="#B3BBBB" width="16.105" height="11.313"/>
				<g>
					
						<rect x="252.511" y="244.256" transform="matrix(0.8992 -0.4375 0.4375 0.8992 -80.5302 143.2258)" fill="#B3BBBB" width="36.189" height="4.295"/>
					
						<rect x="255.582" y="250.567" transform="matrix(0.8992 -0.4375 0.4375 0.8992 -82.9819 145.2053)" fill="#B3BBBB" width="36.189" height="4.295"/>
				</g>
			</g>
			<g>
				
					<rect x="243.584" y="271.237" transform="matrix(0.8992 -0.4375 0.4375 0.8992 -95.7818 137.9997)" fill="#B3BBBB" width="16.105" height="11.313"/>
				<g>
					
						<rect x="259.34" y="258.29" transform="matrix(0.8992 -0.4375 0.4375 0.8992 -85.9819 147.6277)" fill="#B3BBBB" width="36.189" height="4.295"/>
					
						<rect x="262.41" y="264.601" transform="matrix(0.8992 -0.4375 0.4375 0.8992 -88.4337 149.6072)" fill="#B3BBBB" width="36.189" height="4.295"/>
				</g>
			</g>
			
				<rect x="208.66" y="198.199" transform="matrix(0.8992 -0.4375 0.4375 0.8992 -64.0908 123.9241)" fill="#B3BBBB" width="56.543" height="5.744"/>
		</g>
	</g>
</g>
<g opacity="0.4">
	<g>
		
			<circle opacity="0.1" fill="#FFFFFF" stroke="#FFFFFF" stroke-miterlimit="10" enable-background="new    " cx="670.596" cy="222.789" r="23.393"/>
		
			<circle opacity="0.1" fill="#FFFFFF" stroke="#FFFFFF" stroke-miterlimit="10" enable-background="new    " cx="670.596" cy="222.789" r="21.3"/>
	</g>
	<g>
		<g>
			<g>
				<path fill="#5B5A5D" stroke="#676767" stroke-miterlimit="10" d="M682.254,231.972c0.233,0.701-0.15,1.465-0.85,1.698
					l-12.919,4.296c-0.701,0.233-1.465-0.15-1.698-0.85l-8.421-25.327c-0.233-0.701,0.15-1.465,0.85-1.698l12.919-4.296
					c0.701-0.233,1.465,0.15,1.698,0.85L682.254,231.972z"/>
			</g>
			
				<rect x="663.612" y="212.292" transform="matrix(0.9489 -0.3155 0.3155 0.9489 -35.8513 222.8708)" fill="#737F82" width="13.621" height="19.744"/>
			<path fill="#3F4040" d="M675.245,233.448c0.18,0.541-0.113,1.126-0.654,1.306l0,0c-0.541,0.18-1.126-0.113-1.306-0.654l0,0
				c-0.18-0.541,0.113-1.126,0.654-1.306l0,0C674.48,232.613,675.065,232.906,675.245,233.448L675.245,233.448z"/>
			
				<line fill="none" stroke="#3F4040" stroke-width="2" stroke-linecap="round" stroke-miterlimit="10" x1="664.634" y1="211.356" x2="668.555" y2="210.053"/>
		</g>
		<g>
			
				<rect x="663.659" y="215.514" transform="matrix(0.9489 -0.3155 0.3155 0.9489 -35.1778 222.5292)" fill="#8B9799" width="12.091" height="8.799"/>
			<g>
				
					<rect x="665.972" y="226.363" transform="matrix(0.9489 -0.3155 0.3155 0.9489 -37.697 222.2861)" fill="#8B9799" width="3.444" height="2.419"/>
				<g>
					
						<rect x="669.755" y="224.351" transform="matrix(0.9489 -0.3155 0.3155 0.9489 -36.5225 224.0164)" fill="#8B9799" width="7.739" height="0.918"/>
					
						<rect x="670.229" y="225.775" transform="matrix(0.9489 -0.3155 0.3155 0.9489 -36.9477 224.2387)" fill="#8B9799" width="7.739" height="0.918"/>
				</g>
			</g>
			<g>
				
					<rect x="667.025" y="229.53" transform="matrix(0.9489 -0.3155 0.3155 0.9489 -38.6424 222.7801)" fill="#8B9799" width="3.444" height="2.419"/>
				<g>
					
						<rect x="670.808" y="227.518" transform="matrix(0.9489 -0.3155 0.3155 0.9489 -37.468 224.5103)" fill="#8B9799" width="7.739" height="0.918"/>
					
						<rect x="671.282" y="228.942" transform="matrix(0.9489 -0.3155 0.3155 0.9489 -37.8931 224.7327)" fill="#8B9799" width="7.739" height="0.918"/>
				</g>
			</g>
			
				<rect x="661.716" y="213.639" transform="matrix(0.9489 -0.3155 0.3155 0.9489 -33.4913 221.6272)" fill="#8B9799" width="12.091" height="1.228"/>
		</g>
	</g>
</g>
<g opacity="0.5">
	
		<circle opacity="0.1" fill="#FFFFFF" stroke="#FFFFFF" stroke-miterlimit="10" enable-background="new    " cx="88.664" cy="472.549" r="30.991"/>
	
		<circle opacity="0.1" fill="#FFFFFF" stroke="#FFFFFF" stroke-miterlimit="10" enable-background="new    " cx="88.664" cy="472.549" r="27.638"/>
	<g>
		<g>
			<path id="Shape_1_" fill="#5B5A5D" stroke="#676767" stroke-miterlimit="10" d="M103.416,461.282
				c-0.004-0.003-0.01-0.004-0.015-0.007c0.244-0.862-0.192-3.001-7.915-6.044c-8.418-3.316-9.72-1.648-9.918-0.964
				c-0.012-0.004-0.023-0.011-0.037-0.012l-11.665,29.678l0.013-0.001c-0.262,0.76,0.033,2.811,7.963,5.935
				c8.552,3.369,9.816,1.452,10.001,0.743L103.416,461.282L103.416,461.282L103.416,461.282L103.416,461.282z"/>
			
				<rect id="Rectangle_10_" x="80.162" y="458.338" transform="matrix(-0.9304 -0.3665 0.3665 -0.9304 -1.8135 944.3076)" fill="#3F4040" width="17.148" height="27.976"/>
			
				<rect id="Rectangle_9_" x="80.328" y="459.271" transform="matrix(-0.9304 -0.3665 0.3665 -0.9304 -1.339 943.5571)" fill="#737F82" width="17.148" height="25.269"/>
			
				<rect id="Rectangle_4_" x="84.462" y="460.059" transform="matrix(-0.9304 -0.3665 0.3665 -0.9304 10.4867 924.8159)" fill="#8B9799" width="17.148" height="2.707"/>
			
				<rect id="Rectangle_3_" x="76.678" y="481.448" transform="matrix(-0.9304 -0.3665 0.3665 -0.9304 -25.2795 959.9009)" fill="#5B5A5D" width="3.61" height="1.805"/>
			
				<rect id="Rectangle_2_" x="81.716" y="483.434" transform="matrix(-0.9304 -0.3665 0.3665 -0.9304 -16.2824 965.5812)" fill="#5B5A5D" width="3.61" height="1.805"/>
			
				<rect id="Rectangle_1_" x="86.754" y="485.417" transform="matrix(-0.9304 -0.3665 0.3665 -0.9304 -7.284 971.2557)" fill="#5B5A5D" width="3.61" height="1.805"/>
		</g>
	</g>
</g>
</svg>
