<?xml version="1.0" encoding="utf-8"?>
<!-- Generator: Adobe Illustrator 19.1.0, SVG Export Plug-In . SVG Version: 6.00 Build 0)  -->
<svg version="1.1" id="Layer_1" xmlns="http://www.w3.org/2000/svg" xmlns:xlink="http://www.w3.org/1999/xlink" x="0px" y="0px"
	 width="270px" height="270px" viewBox="0 0 270 270" style="enable-background:new 0 0 270 270;" xml:space="preserve">
<style type="text/css">
	.st0{opacity:0.2;}
	.st1{fill:none;stroke:#3F5D69;stroke-width:0.5162;stroke-miterlimit:10;}
	.st2{fill:#4F5764;}
	.st3{fill:url(#SVGID_1_);}
	.st4{fill:url(#SVGID_2_);}
	.st5{fill:url(#SVGID_3_);}
</style>
<g class="st0">
	<polyline class="st1" points="171,16.5 8.5,102.5 160.1,236.6 173.5,17.8 264.4,151.9 79.7,241.1 248,86.7 90.2,25.6 19.2,186.2 	
		"/>
	<polyline class="st1" points="264.4,151.9 160.1,236.6 79.7,241.1 19.2,186.2 8.5,102.5 	"/>
	<g>
		<circle class="st2" cx="264.4" cy="151.9" r="4.1"/>
		<circle class="st2" cx="160.1" cy="236.6" r="4.1"/>
		<circle class="st2" cx="79.7" cy="241.1" r="4.6"/>
		<circle class="st2" cx="8.5" cy="102.5" r="4.1"/>
		<circle class="st2" cx="19.2" cy="186.2" r="3.4"/>
		<circle class="st2" cx="248" cy="86.7" r="3.9"/>
		<circle class="st2" cx="90.2" cy="25.6" r="4.8"/>
		<circle class="st2" cx="173.5" cy="17.8" r="5.4"/>
	</g>
</g>
<g>
	<linearGradient id="SVGID_1_" gradientUnits="userSpaceOnUse" x1="50.9584" y1="135.1361" x2="104.5381" y2="135.1361">
		<stop  offset="0" style="stop-color:#4F5764"/>
		<stop  offset="0.6682" style="stop-color:#293942"/>
		<stop  offset="1" style="stop-color:#111C21"/>
	</linearGradient>
	<path class="st3" d="M51,140.7v-11.1l53.6-23.9V117l-42.6,18.3l42.6,18v11.3L51,140.7z"/>
	<linearGradient id="SVGID_2_" gradientUnits="userSpaceOnUse" x1="112.5123" y1="135" x2="156.683" y2="135">
		<stop  offset="0" style="stop-color:#3D96D2"/>
		<stop  offset="1" style="stop-color:#069FB0"/>
	</linearGradient>
	<path class="st4" d="M112.5,185.8l33.1-101.5h11.1l-33.1,101.5H112.5z"/>
	<linearGradient id="SVGID_3_" gradientUnits="userSpaceOnUse" x1="165.4619" y1="135.1361" x2="219.0416" y2="135.1361">
		<stop  offset="0" style="stop-color:#4F5764"/>
		<stop  offset="0.6682" style="stop-color:#293942"/>
		<stop  offset="1" style="stop-color:#111C21"/>
	</linearGradient>
	<path class="st5" d="M165.5,164.6v-11.3l42.6-18L165.5,117v-11.3l53.6,23.9v11.1L165.5,164.6z"/>
</g>
</svg>
