<?xml version="1.0" encoding="utf-8"?>
<!-- Generator: Adobe Illustrator 17.0.0, SVG Export Plug-In . SVG Version: 6.00 Build 0)  -->
<!DOCTYPE svg PUBLIC "-//W3C//DTD SVG 1.1//EN" "http://www.w3.org/Graphics/SVG/1.1/DTD/svg11.dtd">
<svg version="1.1" id="Layer_1" xmlns="http://www.w3.org/2000/svg" xmlns:xlink="http://www.w3.org/1999/xlink" x="0px" y="0px"
	 width="1329px" height="160px" viewBox="0 0 1329 160" enable-background="new 0 0 1329 160" xml:space="preserve">
<image display="none" overflow="visible" width="1329" height="1124" xlink:href="../../Screen Shot 2013-11-11 at 2.46.55 PM.png"  transform="matrix(1 0 0 1 0 -44)">
</image>
<circle opacity="0.6" fill="#028CB9" cx="1011" cy="45" r="1.5"/>
<circle opacity="0.6" fill="#028CB9" cx="678.5" cy="55" r="1.5"/>
<circle opacity="0.6" fill="#028CB9" cx="811.5" cy="75" r="1.5"/>
<circle opacity="0.6" fill="#028CB9" cx="545.5" cy="75" r="1.5"/>
<circle opacity="0.6" fill="#028CB9" cx="1210.5" cy="55" r="1.5"/>
<circle opacity="0.6" fill="#028CB9" cx="1077.5" cy="75" r="1.5"/>
<circle opacity="0.6" fill="#028CB9" cx="1144" cy="25" r="1.5"/>
<circle opacity="0.6" fill="#028CB9" cx="878" cy="25" r="1.5"/>
<circle opacity="0.6" fill="#028CB9" cx="944.5" cy="55" r="1.5"/>
<circle opacity="0.6" fill="#028CB9" cx="589.407" cy="56.258" r="1.5"/>
<circle opacity="0.6" fill="#028CB9" cx="745" cy="45" r="1.5"/>
<circle opacity="0.6" fill="#028CB9" cx="479" cy="45" r="1.5"/>
<circle opacity="0.6" fill="#028CB9" cx="1041" cy="94" r="1.5"/>
<circle opacity="0.6" fill="#028CB9" cx="708.5" cy="104" r="1.5"/>
<circle opacity="0.6" fill="#028CB9" cx="841.5" cy="124" r="1.5"/>
<circle opacity="0.6" fill="#028CB9" cx="575.5" cy="124" r="1.5"/>
<circle opacity="0.6" fill="#028CB9" cx="1240.5" cy="104" r="1.5"/>
<circle opacity="0.6" fill="#028CB9" cx="1107.5" cy="124" r="1.5"/>
<circle opacity="0.6" fill="#028CB9" cx="1174" cy="74" r="1.5"/>
<circle opacity="0.6" fill="#028CB9" cx="908" cy="74" r="1.5"/>
<circle opacity="0.6" fill="#028CB9" cx="974.5" cy="104" r="1.5"/>
<circle opacity="0.6" fill="#028CB9" cx="642" cy="74" r="1.5"/>
<circle opacity="0.6" fill="#028CB9" cx="775" cy="94" r="1.5"/>
<circle opacity="0.6" fill="#028CB9" cx="509" cy="94" r="1.5"/>
<circle opacity="0.6" fill="#028CB9" cx="121" cy="53" r="1.5"/>
<circle opacity="0.6" fill="#028CB9" cx="54.5" cy="23" r="1.5"/>
<circle opacity="0.6" fill="#028CB9" cx="151" cy="102" r="1.5"/>
<circle opacity="0.6" fill="#028CB9" cx="18" cy="122" r="1.5"/>
<circle opacity="0.6" fill="#028CB9" cx="84.5" cy="72" r="1.5"/>
<g opacity="0.6">
	<circle opacity="0.05" fill="#FFFFFF" cx="575.747" cy="42.918" r="6.738"/>
	<circle fill="#9FD2E7" cx="575.747" cy="42.918" r="2.383"/>
</g>
<g opacity="0.6">
	<circle opacity="0.05" fill="#FFFFFF" cx="602" cy="34.689" r="10.6"/>
	<circle fill="#9FD2E7" cx="602" cy="34.689" r="3.749"/>
	<circle opacity="0.1" fill="#FFFFFF" cx="601.839" cy="34.689" r="6.69"/>
</g>
<g opacity="0.6">
	<circle opacity="0.05" fill="#FFFFFF" cx="935.732" cy="32.854" r="5.486"/>
	<circle fill="#9FD2E7" cx="935.732" cy="32.854" r="1.94"/>
</g>
<g opacity="0.6">
	<circle opacity="0.05" fill="#FFFFFF" cx="931.755" cy="71.144" r="11.245"/>
	<circle fill="#9FD2E7" cx="931.755" cy="71.144" r="3.977"/>
	<circle opacity="0.1" fill="#FFFFFF" cx="931.755" cy="71.315" r="7.097"/>
</g>
<g opacity="0.6">
	<circle opacity="0.05" fill="#FFFFFF" cx="825.06" cy="66.014" r="5.486"/>
	<circle fill="#9FD2E7" cx="825.06" cy="66.014" r="1.94"/>
</g>
<g opacity="0.6">
	<circle opacity="0.05" fill="#FFFFFF" cx="812.376" cy="60.904" r="2.156"/>
	<circle fill="#9FD2E7" cx="812.376" cy="60.904" r="0.762"/>
</g>
<g opacity="0.6">
	<circle opacity="0.05" fill="#FFFFFF" cx="916.568" cy="52.244" r="6.738"/>
	<circle fill="#9FD2E7" cx="916.568" cy="52.244" r="2.383"/>
</g>
<g opacity="0.6">
	<circle opacity="0.05" fill="#FFFFFF" cx="1026.849" cy="127.147" r="10.6"/>
	<circle fill="#9FD2E7" cx="1026.849" cy="127.147" r="3.749"/>
	<circle opacity="0.1" fill="#FFFFFF" cx="1026.688" cy="127.147" r="6.69"/>
</g>
<g opacity="0.6">
	<circle opacity="0.05" fill="#FFFFFF" cx="1252.493" cy="96.725" r="5.486"/>
	<circle fill="#9FD2E7" cx="1252.493" cy="96.725" r="1.94"/>
</g>
<g opacity="0.6">
	<circle opacity="0.05" fill="#FFFFFF" cx="1308.925" cy="34.689" r="11.245"/>
	<circle fill="#9FD2E7" cx="1308.925" cy="34.689" r="3.977"/>
	<circle opacity="0.1" fill="#FFFFFF" cx="1308.925" cy="34.86" r="7.097"/>
</g>
<g opacity="0.6">
	<circle opacity="0.05" fill="#FFFFFF" cx="1165.89" cy="69.204" r="5.486"/>
	<circle fill="#9FD2E7" cx="1165.89" cy="69.204" r="1.94"/>
</g>
<circle opacity="0.6" fill="#028CB9" cx="1278.731" cy="58.208" r="1.5"/>
<g opacity="0.6">
	<circle opacity="0.05" fill="#FFFFFF" cx="1263.732" cy="51.91" r="5.486"/>
	<circle fill="#9FD2E7" cx="1263.732" cy="51.91" r="1.94"/>
</g>
<g opacity="0.6">
	<circle opacity="0.05" fill="#FFFFFF" cx="1266.517" cy="65.298" r="2.156"/>
	<circle fill="#9FD2E7" cx="1266.517" cy="65.298" r="0.762"/>
</g>
<g opacity="0.6">
	<circle opacity="0.05" fill="#FFFFFF" cx="98.952" cy="44.1" r="11.245"/>
	<circle fill="#9FD2E7" cx="98.952" cy="44.1" r="3.977"/>
	<circle opacity="0.1" fill="#FFFFFF" cx="99.096" cy="44.008" r="7.097"/>
</g>
<g opacity="0.6">
	<circle opacity="0.05" fill="#FFFFFF" cx="118.144" cy="71.144" r="6.738"/>
	<circle fill="#9FD2E7" cx="118.144" cy="71.144" r="2.383"/>
</g>
<g opacity="0.6">
	<circle opacity="0.05" fill="#FFFFFF" cx="170.514" cy="34.689" r="5.486"/>
	<circle fill="#9FD2E7" cx="170.514" cy="34.689" r="1.94"/>
</g>
<g opacity="0.6">
	<circle opacity="0.05" fill="#FFFFFF" cx="1271.963" cy="118.511" r="9.21"/>
	<circle fill="#9FD2E7" cx="1271.963" cy="118.511" r="3.257"/>
</g>
<g opacity="0.6">
	<circle opacity="0.05" fill="#FFFFFF" cx="552.486" cy="135.042" r="5.486"/>
	<circle fill="#9FD2E7" cx="552.486" cy="135.042" r="1.94"/>
</g>
<g opacity="0.6">
	<circle opacity="0.05" fill="#FFFFFF" cx="1074" cy="21.5" r="5.486"/>
	<circle fill="#9FD2E7" cx="1074" cy="21.5" r="1.94"/>
</g>
<g opacity="0.6">
	<circle opacity="0.05" fill="#FFFFFF" cx="47.514" cy="140.233" r="5.486"/>
	<circle fill="#9FD2E7" cx="47.514" cy="140.233" r="1.94"/>
</g>
<circle opacity="0.6" fill="#028CB9" cx="361.315" cy="85.721" r="1.5"/>
<circle opacity="0.6" fill="#028CB9" cx="317.409" cy="124.463" r="1.5"/>
<circle opacity="0.6" fill="#028CB9" cx="427.815" cy="115.721" r="1.5"/>
<circle opacity="0.6" fill="#028CB9" cx="309.399" cy="26.815" r="1.5"/>
<circle opacity="0.6" fill="#028CB9" cx="264.815" cy="86.721" r="1.5"/>
<circle opacity="0.6" fill="#028CB9" cx="397.815" cy="66.721" r="1.5"/>
<g opacity="0.6">
	<circle opacity="0.05" fill="#FFFFFF" cx="329.042" cy="135.775" r="4.711"/>
	<circle fill="#9FD2E7" cx="329.042" cy="135.775" r="1.666"/>
</g>
<g opacity="0.6">
	<circle opacity="0.05" fill="#FFFFFF" cx="345.956" cy="143.932" r="7.412"/>
	<circle fill="#9FD2E7" cx="345.956" cy="143.932" r="2.621"/>
	<circle opacity="0.1" fill="#FFFFFF" cx="346.069" cy="143.932" r="4.678"/>
</g>
<g opacity="0.6">
	<circle opacity="0.05" fill="#FFFFFF" cx="297.726" cy="35.282" r="5.486"/>
	<circle fill="#9FD2E7" cx="297.726" cy="35.282" r="1.94"/>
</g>
<circle opacity="0.6" fill="#028CB9" cx="411.862" cy="44.087" r="1.5"/>
<g opacity="0.6">
	<circle opacity="0.05" fill="#FFFFFF" cx="410.468" cy="27.88" r="5.486"/>
	<circle fill="#9FD2E7" cx="410.468" cy="27.88" r="1.94"/>
</g>
<g opacity="0.6">
	<circle opacity="0.05" fill="#FFFFFF" cx="399.907" cy="36.568" r="2.156"/>
	<circle fill="#9FD2E7" cx="399.907" cy="36.568" r="0.762"/>
</g>
</svg>
